<svg width="17" height="17" viewBox="0 0 17 17" fill="none" xmlns="http://www.w3.org/2000/svg">
<g id="Frame">
<path id="Vector" d="M8.67336 10.895C8.51759 10.8953 8.36664 10.8411 8.24669 10.7417L4.24669 7.40837C4.11055 7.29522 4.02493 7.13261 4.00868 6.95632C3.99243 6.78004 4.04687 6.60452 4.16003 6.46837C4.27319 6.33223 4.43579 6.24661 4.61208 6.23036C4.78836 6.21411 4.96388 6.26855 5.10003 6.38171L8.67336 9.36837L12.2467 6.48837C12.3149 6.433 12.3934 6.39164 12.4776 6.36669C12.5618 6.34173 12.6501 6.33367 12.7375 6.34296C12.8248 6.35226 12.9095 6.37872 12.9866 6.42084C13.0637 6.46295 13.1317 6.51989 13.1867 6.58837C13.2477 6.65692 13.294 6.73734 13.3225 6.82459C13.351 6.91184 13.3612 7.00404 13.3525 7.09541C13.3437 7.18679 13.3162 7.27537 13.2716 7.35561C13.227 7.43585 13.1663 7.50601 13.0934 7.56171L9.09336 10.7817C8.96997 10.8654 8.8221 10.9053 8.67336 10.895Z" fill="#212B36"/>
</g>
</svg>
