<svg width="671" height="312" viewBox="0 0 671 312" fill="none" xmlns="http://www.w3.org/2000/svg">
<path d="M10.666 63.2276H659.119" stroke="#919EAB" stroke-opacity="0.2" stroke-dasharray="3 3"/>
<path d="M10.666 118.227H659.119" stroke="#919EAB" stroke-opacity="0.2" stroke-dasharray="3 3"/>
<path d="M10.666 173.226H659.119" stroke="#919EAB" stroke-opacity="0.2" stroke-dasharray="3 3"/>
<path d="M10.666 228.225H659.119" stroke="#919EAB" stroke-opacity="0.2" stroke-dasharray="3 3"/>
<path d="M10.666 8.22852H659.119" stroke="#919EAB" stroke-opacity="0.2" stroke-dasharray="3 3"/>
<path d="M10.666 283.224H659.119" stroke="#919EAB" stroke-opacity="0.2" stroke-dasharray="3 3"/>
<mask id="mask0_1_4986" style="mask-type:luminance" maskUnits="userSpaceOnUse" x="5" y="0" width="657" height="292">
<path d="M661.119 0.228516H5.66602V291.224H661.119V0.228516Z" fill="white"/>
</mask>
<g mask="url(#mask0_1_4986)">
<path d="M10.666 264.891C15.7582 259.981 52.5458 214.694 69.6162 208.058C86.6867 201.422 109.38 222.042 128.566 219.058C147.753 216.075 168.281 192.548 187.517 189.725C206.753 186.903 227.075 195.628 246.467 193.392C265.859 191.156 287.5 175.131 305.417 169.559C323.334 163.987 348.038 164.09 364.367 156.726C380.697 149.362 415.486 126.014 423.318 116.393C431.149 106.773 471.092 2.16339 482.268 11.8951C493.444 21.6268 535.044 209.937 541.218 219.058C547.392 228.18 581.129 193.136 600.168 189.725C619.207 186.315 649.32 192.88 659.119 193.392" stroke="url(#paint0_linear_1_4986)" stroke-width="3" stroke-linecap="round"/>
</g>
<mask id="mask1_1_4986" style="mask-type:luminance" maskUnits="userSpaceOnUse" x="5" y="0" width="657" height="292">
<path d="M661.119 0.228516H5.66602V291.224H661.119V0.228516Z" fill="white"/>
</mask>
<g mask="url(#mask1_1_4986)">
<path d="M10.666 264.89C16.9759 260.181 50.0088 221.806 69.6162 220.891C89.2237 219.976 110.975 265.408 128.566 259.39C146.158 253.373 177.644 190.383 187.517 180.558C197.389 170.733 230.717 149.896 246.467 142.059C262.217 134.222 287.826 127.911 305.417 121.893C323.009 115.875 345.276 98.4609 364.367 101.726C383.459 104.992 411.793 132.382 423.318 142.059C434.842 151.736 472.395 190.9 482.268 200.725C492.14 210.55 522.127 262.656 541.218 259.39C560.31 256.125 590.296 190.383 600.168 180.558C610.041 170.733 652.231 146.557 659.119 142.059" stroke="url(#paint1_linear_1_4986)" stroke-width="3" stroke-linecap="round"/>
</g>
<path d="M4.91531 299.496H5.97212V305.735C5.97212 306.292 5.86985 306.765 5.66531 307.154C5.46076 307.543 5.17241 307.839 4.80025 308.04C4.42809 308.242 3.98917 308.343 3.48349 308.343C3.00621 308.343 2.5815 308.256 2.20934 308.083C1.83718 307.907 1.54457 307.657 1.3315 307.333C1.11843 307.009 1.0119 306.624 1.0119 306.178H2.05167C2.05167 306.425 2.11275 306.641 2.23491 306.826C2.35991 307.008 2.53036 307.15 2.74627 307.252C2.96218 307.354 3.20792 307.406 3.48349 307.406C3.78746 307.406 4.04599 307.342 4.25906 307.214C4.47212 307.086 4.63406 306.898 4.74485 306.651C4.85849 306.401 4.91531 306.096 4.91531 305.735V299.496ZM9.87979 308.377C9.46502 308.377 9.0886 308.299 8.75053 308.143C8.41246 307.984 8.144 307.755 7.94513 307.457C7.74627 307.156 7.64684 306.792 7.64684 306.366C7.64684 305.991 7.7207 305.687 7.86843 305.454C8.01616 305.218 8.2136 305.033 8.46076 304.9C8.70792 304.766 8.98065 304.667 9.27894 304.602C9.58008 304.533 9.88263 304.479 10.1866 304.44C10.5843 304.388 10.9068 304.35 11.1539 304.325C11.4039 304.296 11.5858 304.249 11.6994 304.184C11.8159 304.119 11.8741 304.005 11.8741 303.843V303.809C11.8741 303.388 11.7591 303.062 11.5289 302.829C11.3017 302.596 10.9565 302.479 10.4934 302.479C10.0133 302.479 9.6369 302.585 9.36417 302.795C9.09144 303.005 8.89968 303.229 8.78889 303.468L7.83434 303.127C8.00479 302.729 8.23207 302.42 8.51616 302.198C8.80309 301.974 9.11559 301.817 9.45366 301.729C9.79457 301.638 10.1298 301.593 10.4593 301.593C10.6696 301.593 10.911 301.619 11.1838 301.67C11.4593 301.718 11.725 301.819 11.9806 301.972C12.2392 302.126 12.4537 302.357 12.6241 302.667C12.7946 302.977 12.8798 303.391 12.8798 303.911V308.224H11.8741V307.337H11.823C11.7548 307.479 11.6412 307.631 11.4821 307.793C11.323 307.955 11.1113 308.093 10.8471 308.207C10.5829 308.32 10.2605 308.377 9.87979 308.377ZM10.0332 307.474C10.4309 307.474 10.7662 307.396 11.0389 307.239C11.3145 307.083 11.5218 306.881 11.661 306.634C11.8031 306.387 11.8741 306.127 11.8741 305.854V304.934C11.8315 304.985 11.7377 305.032 11.5929 305.075C11.4508 305.114 11.286 305.15 11.0985 305.181C10.9139 305.21 10.7335 305.235 10.5574 305.258C10.3841 305.278 10.2434 305.295 10.1355 305.309C9.87411 305.343 9.62979 305.398 9.40252 305.475C9.17809 305.549 8.99627 305.661 8.85707 305.812C8.7207 305.96 8.65252 306.161 8.65252 306.417C8.65252 306.766 8.78178 307.031 9.04031 307.21C9.30167 307.386 9.63263 307.474 10.0332 307.474ZM15.7211 304.286V308.224H14.7154V301.678H15.687V302.701H15.7722C15.9256 302.369 16.1586 302.102 16.4711 301.9C16.7836 301.695 17.187 301.593 17.6813 301.593C18.1245 301.593 18.5123 301.684 18.8446 301.866C19.177 302.045 19.4355 302.317 19.6202 302.684C19.8049 303.048 19.8972 303.508 19.8972 304.065V308.224H18.8915V304.133C18.8915 303.619 18.758 303.218 18.4909 302.931C18.2239 302.641 17.8574 302.496 17.3915 302.496C17.0705 302.496 16.7836 302.566 16.5307 302.705C16.2807 302.844 16.0833 303.048 15.9384 303.315C15.7935 303.582 15.7211 303.906 15.7211 304.286Z" fill="#919EAB"/>
<path d="M60.174 308.224V299.496H65.407V300.434H61.2308V303.383H65.0149V304.32H61.2308V308.224H60.174ZM69.3445 308.36C68.7138 308.36 68.1697 308.221 67.7124 307.942C67.2578 307.661 66.907 307.269 66.6598 306.766C66.4155 306.261 66.2933 305.673 66.2933 305.002C66.2933 304.332 66.4155 303.741 66.6598 303.229C66.907 302.715 67.2507 302.315 67.6911 302.028C68.1342 301.738 68.6513 301.593 69.2422 301.593C69.5831 301.593 69.9197 301.65 70.2521 301.763C70.5845 301.877 70.8871 302.062 71.1598 302.317C71.4325 302.57 71.6499 302.906 71.8118 303.323C71.9737 303.741 72.0547 304.255 72.0547 304.866V305.292H67.0092V304.423H71.032C71.032 304.053 70.9581 303.724 70.8104 303.434C70.6655 303.144 70.4581 302.915 70.1882 302.748C69.9212 302.58 69.6058 302.496 69.2422 302.496C68.8416 302.496 68.495 302.596 68.2024 302.795C67.9126 302.991 67.6896 303.246 67.5334 303.562C67.3771 303.877 67.299 304.215 67.299 304.576V305.156C67.299 305.65 67.3842 306.069 67.5547 306.413C67.728 306.754 67.968 307.013 68.2749 307.192C68.5817 307.369 68.9382 307.457 69.3445 307.457C69.6087 307.457 69.8473 307.42 70.0604 307.346C70.2763 307.269 70.4624 307.156 70.6186 307.005C70.7749 306.852 70.8956 306.661 70.9808 306.434L71.9524 306.707C71.8501 307.036 71.6783 307.326 71.4368 307.576C71.1953 307.823 70.897 308.016 70.5419 308.156C70.1868 308.292 69.7876 308.36 69.3445 308.36ZM73.7209 308.224V299.496H74.7266V302.718H74.8118C74.8857 302.604 74.9879 302.46 75.1186 302.283C75.2521 302.104 75.4425 301.945 75.6896 301.806C75.9396 301.664 76.2777 301.593 76.7038 301.593C77.255 301.593 77.7408 301.731 78.1612 302.006C78.5817 302.282 78.9098 302.673 79.1456 303.178C79.3814 303.684 79.4993 304.281 79.4993 304.968C79.4993 305.661 79.3814 306.262 79.1456 306.771C78.9098 307.276 78.5831 307.668 78.1655 307.947C77.7479 308.222 77.2663 308.36 76.7209 308.36C76.3004 308.36 75.9638 308.29 75.7109 308.151C75.4581 308.009 75.2635 307.849 75.1271 307.67C74.9908 307.488 74.8857 307.337 74.8118 307.218H74.6925V308.224H73.7209ZM74.7095 304.951C74.7095 305.445 74.782 305.881 74.9268 306.259C75.0717 306.634 75.2834 306.928 75.5618 307.141C75.8402 307.352 76.1811 307.457 76.5845 307.457C77.005 307.457 77.3558 307.346 77.6371 307.124C77.9212 306.9 78.1342 306.599 78.2763 306.221C78.4212 305.84 78.4936 305.417 78.4936 304.951C78.4936 304.491 78.4226 304.076 78.2805 303.707C78.1413 303.335 77.9297 303.04 77.6456 302.825C77.3643 302.606 77.0107 302.496 76.5845 302.496C76.1754 302.496 75.8317 302.6 75.5533 302.808C75.2749 303.012 75.0646 303.299 74.9226 303.668C74.7805 304.035 74.7095 304.462 74.7095 304.951Z" fill="#919EAB"/>
<path d="M118.672 299.496H119.933L122.899 306.741H123.002L125.968 299.496H127.229V308.224H126.24V301.593H126.155L123.428 308.224H122.473L119.746 301.593H119.661V308.224H118.672V299.496ZM131.138 308.377C130.723 308.377 130.346 308.299 130.008 308.143C129.67 307.984 129.402 307.755 129.203 307.457C129.004 307.156 128.905 306.792 128.905 306.366C128.905 305.991 128.979 305.687 129.126 305.454C129.274 305.218 129.471 305.033 129.719 304.9C129.966 304.766 130.238 304.667 130.537 304.602C130.838 304.533 131.14 304.479 131.444 304.44C131.842 304.388 132.165 304.35 132.412 304.325C132.662 304.296 132.844 304.249 132.957 304.184C133.074 304.119 133.132 304.005 133.132 303.843V303.809C133.132 303.388 133.017 303.062 132.787 302.829C132.559 302.596 132.214 302.479 131.751 302.479C131.271 302.479 130.895 302.585 130.622 302.795C130.349 303.005 130.157 303.229 130.047 303.468L129.092 303.127C129.263 302.729 129.49 302.42 129.774 302.198C130.061 301.974 130.373 301.817 130.711 301.729C131.052 301.638 131.388 301.593 131.717 301.593C131.927 301.593 132.169 301.619 132.442 301.67C132.717 301.718 132.983 301.819 133.238 301.972C133.497 302.126 133.711 302.357 133.882 302.667C134.052 302.977 134.138 303.391 134.138 303.911V308.224H133.132V307.337H133.081C133.013 307.479 132.899 307.631 132.74 307.793C132.581 307.955 132.369 308.093 132.105 308.207C131.841 308.32 131.518 308.377 131.138 308.377ZM131.291 307.474C131.689 307.474 132.024 307.396 132.297 307.239C132.572 307.083 132.78 306.881 132.919 306.634C133.061 306.387 133.132 306.127 133.132 305.854V304.934C133.089 304.985 132.996 305.032 132.851 305.075C132.709 305.114 132.544 305.15 132.356 305.181C132.172 305.21 131.991 305.235 131.815 305.258C131.642 305.278 131.501 305.295 131.393 305.309C131.132 305.343 130.888 305.398 130.66 305.475C130.436 305.549 130.254 305.661 130.115 305.812C129.979 305.96 129.91 306.161 129.91 306.417C129.91 306.766 130.04 307.031 130.298 307.21C130.559 307.386 130.89 307.474 131.291 307.474ZM135.973 308.224V301.678H136.945V302.667H137.013C137.132 302.343 137.348 302.08 137.661 301.879C137.973 301.677 138.325 301.576 138.718 301.576C138.791 301.576 138.884 301.577 138.994 301.58C139.105 301.583 139.189 301.587 139.246 301.593V302.616C139.212 302.607 139.134 302.594 139.012 302.577C138.892 302.558 138.766 302.548 138.632 302.548C138.314 302.548 138.03 302.614 137.78 302.748C137.533 302.879 137.337 303.06 137.192 303.293C137.05 303.523 136.979 303.786 136.979 304.082V308.224H135.973Z" fill="#919EAB"/>
<path d="M178.989 308.224H177.881L181.086 299.496H182.176L185.381 308.224H184.273L181.665 300.877H181.597L178.989 308.224ZM179.398 304.815H183.864V305.752H179.398V304.815ZM186.604 310.678V301.678H187.576V302.718H187.695C187.769 302.604 187.871 302.46 188.002 302.283C188.135 302.104 188.326 301.945 188.573 301.806C188.823 301.664 189.161 301.593 189.587 301.593C190.138 301.593 190.624 301.731 191.044 302.006C191.465 302.282 191.793 302.673 192.029 303.178C192.265 303.684 192.382 304.281 192.382 304.968C192.382 305.661 192.265 306.262 192.029 306.771C191.793 307.276 191.466 307.668 191.049 307.947C190.631 308.222 190.15 308.36 189.604 308.36C189.184 308.36 188.847 308.29 188.594 308.151C188.341 308.009 188.147 307.849 188.01 307.67C187.874 307.488 187.769 307.337 187.695 307.218H187.61V310.678H186.604ZM187.593 304.951C187.593 305.445 187.665 305.881 187.81 306.259C187.955 306.634 188.167 306.928 188.445 307.141C188.723 307.352 189.064 307.457 189.468 307.457C189.888 307.457 190.239 307.346 190.52 307.124C190.804 306.9 191.017 306.599 191.159 306.221C191.304 305.84 191.377 305.417 191.377 304.951C191.377 304.491 191.306 304.076 191.164 303.707C191.025 303.335 190.813 303.04 190.529 302.825C190.248 302.606 189.894 302.496 189.468 302.496C189.059 302.496 188.715 302.6 188.436 302.808C188.158 303.012 187.948 303.299 187.806 303.668C187.664 304.035 187.593 304.462 187.593 304.951ZM193.917 308.224V301.678H194.888V302.667H194.956C195.076 302.343 195.292 302.08 195.604 301.879C195.917 301.677 196.269 301.576 196.661 301.576C196.735 301.576 196.827 301.577 196.938 301.58C197.049 301.583 197.132 301.587 197.189 301.593V302.616C197.155 302.607 197.077 302.594 196.955 302.577C196.836 302.558 196.709 302.548 196.576 302.548C196.257 302.548 195.973 302.614 195.723 302.748C195.476 302.879 195.28 303.06 195.135 303.293C194.993 303.523 194.922 303.786 194.922 304.082V308.224H193.917Z" fill="#919EAB"/>
<path d="M235.582 299.496H236.844L239.809 306.741H239.912L242.878 299.496H244.139V308.224H243.15V301.593H243.065L240.338 308.224H239.383L236.656 301.593H236.571V308.224H235.582V299.496ZM248.048 308.377C247.633 308.377 247.257 308.299 246.919 308.143C246.58 307.984 246.312 307.755 246.113 307.457C245.914 307.156 245.815 306.792 245.815 306.366C245.815 305.991 245.889 305.687 246.036 305.454C246.184 305.218 246.382 305.033 246.629 304.9C246.876 304.766 247.149 304.667 247.447 304.602C247.748 304.533 248.051 304.479 248.355 304.44C248.752 304.388 249.075 304.35 249.322 304.325C249.572 304.296 249.754 304.249 249.867 304.184C249.984 304.119 250.042 304.005 250.042 303.843V303.809C250.042 303.388 249.927 303.062 249.697 302.829C249.47 302.596 249.124 302.479 248.661 302.479C248.181 302.479 247.805 302.585 247.532 302.795C247.259 303.005 247.068 303.229 246.957 303.468L246.002 303.127C246.173 302.729 246.4 302.42 246.684 302.198C246.971 301.974 247.284 301.817 247.622 301.729C247.963 301.638 248.298 301.593 248.627 301.593C248.838 301.593 249.079 301.619 249.352 301.67C249.627 301.718 249.893 301.819 250.149 301.972C250.407 302.126 250.622 302.357 250.792 302.667C250.963 302.977 251.048 303.391 251.048 303.911V308.224H250.042V307.337H249.991C249.923 307.479 249.809 307.631 249.65 307.793C249.491 307.955 249.279 308.093 249.015 308.207C248.751 308.32 248.428 308.377 248.048 308.377ZM248.201 307.474C248.599 307.474 248.934 307.396 249.207 307.239C249.482 307.083 249.69 306.881 249.829 306.634C249.971 306.387 250.042 306.127 250.042 305.854V304.934C249.999 304.985 249.906 305.032 249.761 305.075C249.619 305.114 249.454 305.15 249.267 305.181C249.082 305.21 248.901 305.235 248.725 305.258C248.552 305.278 248.411 305.295 248.303 305.309C248.042 305.343 247.798 305.398 247.57 305.475C247.346 305.549 247.164 305.661 247.025 305.812C246.889 305.96 246.82 306.161 246.82 306.417C246.82 306.766 246.95 307.031 247.208 307.21C247.47 307.386 247.801 307.474 248.201 307.474ZM253.297 310.678C253.126 310.678 252.974 310.664 252.841 310.636C252.707 310.61 252.615 310.585 252.564 310.559L252.819 309.673C253.064 309.735 253.28 309.758 253.467 309.741C253.655 309.724 253.821 309.64 253.966 309.489C254.113 309.342 254.248 309.102 254.371 308.769L254.558 308.258L252.138 301.678H253.229L255.035 306.894H255.104L256.91 301.678H258.001L255.223 309.178C255.098 309.516 254.943 309.796 254.758 310.018C254.574 310.242 254.359 310.408 254.115 310.516C253.873 310.624 253.601 310.678 253.297 310.678Z" fill="#919EAB"/>
<path d="M299.562 299.496H300.619V305.735C300.619 306.292 300.516 306.765 300.312 307.154C300.107 307.543 299.819 307.839 299.447 308.04C299.075 308.242 298.636 308.343 298.13 308.343C297.653 308.343 297.228 308.256 296.856 308.083C296.484 307.907 296.191 307.657 295.978 307.333C295.765 307.009 295.658 306.624 295.658 306.178H296.698C296.698 306.425 296.759 306.641 296.881 306.826C297.006 307.008 297.177 307.15 297.393 307.252C297.609 307.354 297.854 307.406 298.13 307.406C298.434 307.406 298.692 307.342 298.906 307.214C299.119 307.086 299.281 306.898 299.391 306.651C299.505 306.401 299.562 306.096 299.562 305.735V299.496ZM306.725 305.548V301.678H307.731V308.224H306.725V307.116H306.657C306.504 307.448 306.265 307.731 305.941 307.964C305.617 308.194 305.208 308.309 304.714 308.309C304.305 308.309 303.941 308.219 303.623 308.04C303.305 307.859 303.055 307.586 302.873 307.222C302.691 306.856 302.6 306.394 302.6 305.837V301.678H303.606V305.769C303.606 306.246 303.739 306.627 304.006 306.911C304.276 307.195 304.62 307.337 305.038 307.337C305.288 307.337 305.542 307.273 305.8 307.146C306.062 307.018 306.281 306.822 306.457 306.558C306.636 306.293 306.725 305.957 306.725 305.548ZM310.578 304.286V308.224H309.573V301.678H310.544V302.701H310.63C310.783 302.369 311.016 302.102 311.328 301.9C311.641 301.695 312.044 301.593 312.539 301.593C312.982 301.593 313.37 301.684 313.702 301.866C314.034 302.045 314.293 302.317 314.478 302.684C314.662 303.048 314.755 303.508 314.755 304.065V308.224H313.749V304.133C313.749 303.619 313.615 303.218 313.348 302.931C313.081 302.641 312.715 302.496 312.249 302.496C311.928 302.496 311.641 302.566 311.388 302.705C311.138 302.844 310.941 303.048 310.796 303.315C310.651 303.582 310.578 303.906 310.578 304.286Z" fill="#919EAB"/>
<path d="M360.597 299.496H361.654V305.735C361.654 306.292 361.551 306.765 361.347 307.154C361.142 307.543 360.854 307.839 360.482 308.04C360.11 308.242 359.671 308.343 359.165 308.343C358.688 308.343 358.263 308.256 357.891 308.083C357.519 307.907 357.226 307.657 357.013 307.333C356.8 307.009 356.694 306.624 356.694 306.178H357.733C357.733 306.425 357.794 306.641 357.917 306.826C358.042 307.008 358.212 307.15 358.428 307.252C358.644 307.354 358.89 307.406 359.165 307.406C359.469 307.406 359.728 307.342 359.941 307.214C360.154 307.086 360.316 306.898 360.426 306.651C360.54 306.401 360.597 306.096 360.597 305.735V299.496ZM367.76 305.548V301.678H368.766V308.224H367.76V307.116H367.692C367.539 307.448 367.3 307.731 366.976 307.964C366.652 308.194 366.243 308.309 365.749 308.309C365.34 308.309 364.976 308.219 364.658 308.04C364.34 307.859 364.09 307.586 363.908 307.222C363.726 306.856 363.635 306.394 363.635 305.837V301.678H364.641V305.769C364.641 306.246 364.775 306.627 365.042 306.911C365.311 307.195 365.655 307.337 366.073 307.337C366.323 307.337 366.577 307.273 366.836 307.146C367.097 307.018 367.316 306.822 367.492 306.558C367.671 306.293 367.76 305.957 367.76 305.548ZM371.614 299.496V308.224H370.608V299.496H371.614Z" fill="#919EAB"/>
<path d="M413.536 308.224H412.428L415.632 299.496H416.723L419.928 308.224H418.82L416.212 300.877H416.144L413.536 308.224ZM413.945 304.815H418.411V305.752H413.945V304.815ZM425.276 305.548V301.678H426.282V308.224H425.276V307.116H425.208C425.054 307.448 424.816 307.731 424.492 307.964C424.168 308.194 423.759 308.309 423.265 308.309C422.855 308.309 422.492 308.219 422.174 308.04C421.855 307.859 421.605 307.586 421.424 307.222C421.242 306.856 421.151 306.394 421.151 305.837V301.678H422.157V305.769C422.157 306.246 422.29 306.627 422.557 306.911C422.827 307.195 423.171 307.337 423.588 307.337C423.838 307.337 424.093 307.273 424.351 307.146C424.613 307.018 424.831 306.822 425.007 306.558C425.186 306.293 425.276 305.957 425.276 305.548ZM430.766 310.815C430.28 310.815 429.862 310.752 429.513 310.627C429.163 310.505 428.872 310.343 428.639 310.141C428.409 309.942 428.226 309.729 428.089 309.502L428.891 308.94C428.982 309.059 429.097 309.195 429.236 309.349C429.375 309.505 429.565 309.64 429.807 309.754C430.051 309.87 430.371 309.928 430.766 309.928C431.294 309.928 431.73 309.8 432.074 309.545C432.418 309.289 432.589 308.888 432.589 308.343V307.013H432.504C432.43 307.133 432.325 307.281 432.189 307.457C432.055 307.63 431.862 307.785 431.609 307.921C431.359 308.055 431.021 308.121 430.595 308.121C430.067 308.121 429.592 307.996 429.172 307.746C428.754 307.496 428.423 307.133 428.179 306.656C427.938 306.178 427.817 305.599 427.817 304.917C427.817 304.246 427.935 303.663 428.17 303.165C428.406 302.665 428.734 302.279 429.155 302.006C429.575 301.731 430.061 301.593 430.612 301.593C431.038 301.593 431.376 301.664 431.626 301.806C431.879 301.945 432.072 302.104 432.206 302.283C432.342 302.46 432.447 302.604 432.521 302.718H432.624V301.678H433.595V308.411C433.595 308.974 433.467 309.431 433.212 309.783C432.959 310.138 432.618 310.398 432.189 310.563C431.763 310.731 431.288 310.815 430.766 310.815ZM430.732 307.218C431.135 307.218 431.476 307.126 431.754 306.941C432.033 306.756 432.244 306.491 432.389 306.144C432.534 305.798 432.607 305.383 432.607 304.9C432.607 304.428 432.536 304.012 432.393 303.651C432.251 303.29 432.041 303.008 431.763 302.803C431.484 302.599 431.141 302.496 430.732 302.496C430.305 302.496 429.95 302.604 429.666 302.82C429.385 303.036 429.173 303.326 429.031 303.69C428.892 304.053 428.822 304.457 428.822 304.9C428.822 305.354 428.893 305.756 429.036 306.106C429.18 306.452 429.393 306.725 429.675 306.924C429.959 307.12 430.311 307.218 430.732 307.218Z" fill="#919EAB"/>
<path d="M477.123 301.678C477.071 301.246 476.864 300.911 476.5 300.673C476.137 300.434 475.691 300.315 475.162 300.315C474.776 300.315 474.438 300.377 474.148 300.502C473.861 300.627 473.637 300.799 473.475 301.018C473.316 301.237 473.236 301.485 473.236 301.763C473.236 301.996 473.292 302.197 473.402 302.364C473.516 302.529 473.661 302.667 473.837 302.778C474.013 302.886 474.198 302.975 474.391 303.046C474.584 303.114 474.762 303.17 474.924 303.212L475.81 303.451C476.037 303.511 476.29 303.593 476.569 303.698C476.85 303.803 477.118 303.947 477.374 304.129C477.632 304.308 477.846 304.538 478.013 304.819C478.181 305.1 478.265 305.445 478.265 305.854C478.265 306.326 478.141 306.752 477.894 307.133C477.65 307.513 477.292 307.816 476.82 308.04C476.351 308.265 475.782 308.377 475.111 308.377C474.486 308.377 473.945 308.276 473.488 308.075C473.033 307.873 472.675 307.592 472.414 307.231C472.155 306.87 472.009 306.451 471.975 305.974H473.066C473.094 306.303 473.205 306.576 473.398 306.792C473.594 307.005 473.841 307.164 474.14 307.269C474.441 307.371 474.765 307.423 475.111 307.423C475.515 307.423 475.877 307.357 476.198 307.227C476.519 307.093 476.773 306.908 476.961 306.673C477.148 306.434 477.242 306.156 477.242 305.837C477.242 305.548 477.161 305.312 476.999 305.13C476.837 304.948 476.624 304.8 476.36 304.687C476.096 304.573 475.81 304.474 475.503 304.388L474.429 304.082C473.748 303.886 473.208 303.606 472.81 303.242C472.412 302.879 472.213 302.403 472.213 301.815C472.213 301.326 472.346 300.9 472.61 300.536C472.877 300.17 473.235 299.886 473.684 299.684C474.135 299.479 474.64 299.377 475.196 299.377C475.759 299.377 476.259 299.478 476.696 299.68C477.134 299.879 477.48 300.151 477.736 300.498C477.995 300.844 478.131 301.238 478.145 301.678H477.123ZM482.61 308.36C481.979 308.36 481.435 308.221 480.978 307.942C480.523 307.661 480.173 307.269 479.925 306.766C479.681 306.261 479.559 305.673 479.559 305.002C479.559 304.332 479.681 303.741 479.925 303.229C480.173 302.715 480.516 302.315 480.957 302.028C481.4 301.738 481.917 301.593 482.508 301.593C482.849 301.593 483.185 301.65 483.518 301.763C483.85 301.877 484.153 302.062 484.425 302.317C484.698 302.57 484.915 302.906 485.077 303.323C485.239 303.741 485.32 304.255 485.32 304.866V305.292H480.275V304.423H484.298C484.298 304.053 484.224 303.724 484.076 303.434C483.931 303.144 483.724 302.915 483.454 302.748C483.187 302.58 482.871 302.496 482.508 302.496C482.107 302.496 481.761 302.596 481.468 302.795C481.178 302.991 480.955 303.246 480.799 303.562C480.643 303.877 480.565 304.215 480.565 304.576V305.156C480.565 305.65 480.65 306.069 480.82 306.413C480.994 306.754 481.234 307.013 481.54 307.192C481.847 307.369 482.204 307.457 482.61 307.457C482.874 307.457 483.113 307.42 483.326 307.346C483.542 307.269 483.728 307.156 483.884 307.005C484.04 306.852 484.161 306.661 484.246 306.434L485.218 306.707C485.116 307.036 484.944 307.326 484.702 307.576C484.461 307.823 484.163 308.016 483.808 308.156C483.452 308.292 483.053 308.36 482.61 308.36ZM486.85 310.678V301.678H487.822V302.718H487.941C488.015 302.604 488.117 302.46 488.248 302.283C488.381 302.104 488.572 301.945 488.819 301.806C489.069 301.664 489.407 301.593 489.833 301.593C490.384 301.593 490.87 301.731 491.29 302.006C491.711 302.282 492.039 302.673 492.275 303.178C492.511 303.684 492.629 304.281 492.629 304.968C492.629 305.661 492.511 306.262 492.275 306.771C492.039 307.276 491.712 307.668 491.295 307.947C490.877 308.222 490.396 308.36 489.85 308.36C489.43 308.36 489.093 308.29 488.84 308.151C488.587 308.009 488.393 307.849 488.256 307.67C488.12 307.488 488.015 307.337 487.941 307.218H487.856V310.678H486.85ZM487.839 304.951C487.839 305.445 487.911 305.881 488.056 306.259C488.201 306.634 488.413 306.928 488.691 307.141C488.969 307.352 489.31 307.457 489.714 307.457C490.134 307.457 490.485 307.346 490.766 307.124C491.05 306.9 491.263 306.599 491.406 306.221C491.55 305.84 491.623 305.417 491.623 304.951C491.623 304.491 491.552 304.076 491.41 303.707C491.271 303.335 491.059 303.04 490.775 302.825C490.494 302.606 490.14 302.496 489.714 302.496C489.305 302.496 488.961 302.6 488.683 302.808C488.404 303.012 488.194 303.299 488.052 303.668C487.91 304.035 487.839 304.462 487.839 304.951Z" fill="#919EAB"/>
<path d="M539.538 303.86C539.538 304.781 539.371 305.576 539.039 306.246C538.707 306.917 538.251 307.434 537.671 307.798C537.092 308.161 536.43 308.343 535.685 308.343C534.941 308.343 534.279 308.161 533.7 307.798C533.12 307.434 532.664 306.917 532.332 306.246C531.999 305.576 531.833 304.781 531.833 303.86C531.833 302.94 531.999 302.144 532.332 301.474C532.664 300.803 533.12 300.286 533.7 299.923C534.279 299.559 534.941 299.377 535.685 299.377C536.43 299.377 537.092 299.559 537.671 299.923C538.251 300.286 538.707 300.803 539.039 301.474C539.371 302.144 539.538 302.94 539.538 303.86ZM538.515 303.86C538.515 303.104 538.388 302.467 538.136 301.947C537.886 301.427 537.546 301.033 537.117 300.766C536.691 300.499 536.214 300.366 535.685 300.366C535.157 300.366 534.678 300.499 534.249 300.766C533.823 301.033 533.484 301.427 533.231 301.947C532.981 302.467 532.856 303.104 532.856 303.86C532.856 304.616 532.981 305.254 533.231 305.773C533.484 306.293 533.823 306.687 534.249 306.954C534.678 307.221 535.157 307.354 535.685 307.354C536.214 307.354 536.691 307.221 537.117 306.954C537.546 306.687 537.886 306.293 538.136 305.773C538.388 305.254 538.515 304.616 538.515 303.86ZM543.837 308.36C543.224 308.36 542.695 308.215 542.252 307.925C541.809 307.636 541.468 307.237 541.229 306.728C540.991 306.219 540.871 305.638 540.871 304.985C540.871 304.32 540.994 303.734 541.238 303.225C541.485 302.714 541.829 302.315 542.269 302.028C542.712 301.738 543.229 301.593 543.82 301.593C544.281 301.593 544.695 301.678 545.065 301.849C545.434 302.019 545.737 302.258 545.972 302.565C546.208 302.871 546.354 303.229 546.411 303.638H545.406C545.329 303.34 545.158 303.076 544.894 302.846C544.633 302.613 544.281 302.496 543.837 302.496C543.445 302.496 543.102 302.599 542.806 302.803C542.513 303.005 542.285 303.29 542.12 303.66C541.958 304.026 541.877 304.457 541.877 304.951C541.877 305.457 541.957 305.897 542.116 306.272C542.278 306.647 542.505 306.938 542.798 307.146C543.093 307.353 543.44 307.457 543.837 307.457C544.099 307.457 544.336 307.411 544.549 307.32C544.762 307.229 544.942 307.099 545.09 306.928C545.238 306.758 545.343 306.553 545.406 306.315H546.411C546.354 306.701 546.214 307.049 545.989 307.359C545.768 307.665 545.474 307.91 545.107 308.092C544.744 308.271 544.32 308.36 543.837 308.36ZM550.728 301.678V302.531H547.336V301.678H550.728ZM548.325 300.11H549.33V306.349C549.33 306.633 549.371 306.846 549.454 306.988C549.539 307.127 549.647 307.221 549.778 307.269C549.911 307.315 550.052 307.337 550.2 307.337C550.31 307.337 550.401 307.332 550.472 307.32C550.543 307.306 550.6 307.295 550.643 307.286L550.847 308.19C550.779 308.215 550.684 308.241 550.562 308.266C550.44 308.295 550.285 308.309 550.097 308.309C549.813 308.309 549.535 308.248 549.262 308.126C548.992 308.004 548.768 307.817 548.589 307.567C548.413 307.317 548.325 307.002 548.325 306.621V300.11Z" fill="#919EAB"/>
<path d="M596.825 299.496V308.224H595.802L591.047 301.371H590.961V308.224H589.904V299.496H590.927L595.7 306.366H595.785V299.496H596.825ZM601.462 308.36C600.871 308.36 600.353 308.219 599.907 307.938C599.464 307.657 599.117 307.263 598.867 306.758C598.62 306.252 598.496 305.661 598.496 304.985C598.496 304.303 598.62 303.708 598.867 303.2C599.117 302.691 599.464 302.296 599.907 302.015C600.353 301.734 600.871 301.593 601.462 301.593C602.053 301.593 602.57 301.734 603.013 302.015C603.46 302.296 603.806 302.691 604.053 303.2C604.303 303.708 604.428 304.303 604.428 304.985C604.428 305.661 604.303 306.252 604.053 306.758C603.806 307.263 603.46 307.657 603.013 307.938C602.57 308.219 602.053 308.36 601.462 308.36ZM601.462 307.457C601.911 307.457 602.281 307.342 602.57 307.112C602.86 306.881 603.075 306.579 603.214 306.204C603.353 305.829 603.423 305.423 603.423 304.985C603.423 304.548 603.353 304.14 603.214 303.762C603.075 303.384 602.86 303.079 602.57 302.846C602.281 302.613 601.911 302.496 601.462 302.496C601.013 302.496 600.644 302.613 600.354 302.846C600.065 303.079 599.85 303.384 599.711 303.762C599.572 304.14 599.502 304.548 599.502 304.985C599.502 305.423 599.572 305.829 599.711 306.204C599.85 306.579 600.065 306.881 600.354 307.112C600.644 307.342 601.013 307.457 601.462 307.457ZM611.081 301.678L608.661 308.224H607.638L605.218 301.678H606.309L608.115 306.894H608.184L609.99 301.678H611.081Z" fill="#919EAB"/>
<path d="M651.713 308.224H649.02V299.496H651.832C652.679 299.496 653.403 299.671 654.006 300.021C654.608 300.367 655.069 300.866 655.39 301.516C655.711 302.164 655.872 302.94 655.872 303.843C655.872 304.752 655.71 305.535 655.386 306.191C655.062 306.844 654.591 307.347 653.971 307.7C653.352 308.049 652.599 308.224 651.713 308.224ZM650.077 307.286H651.645C652.366 307.286 652.964 307.147 653.439 306.869C653.913 306.59 654.267 306.194 654.5 305.68C654.733 305.165 654.849 304.553 654.849 303.843C654.849 303.138 654.734 302.532 654.504 302.023C654.274 301.512 653.93 301.12 653.473 300.847C653.015 300.572 652.446 300.434 651.764 300.434H650.077V307.286ZM660.253 308.36C659.622 308.36 659.078 308.221 658.621 307.942C658.166 307.661 657.815 307.269 657.568 306.766C657.324 306.261 657.202 305.673 657.202 305.002C657.202 304.332 657.324 303.741 657.568 303.229C657.815 302.715 658.159 302.315 658.599 302.028C659.042 301.738 659.559 301.593 660.15 301.593C660.491 301.593 660.828 301.65 661.16 301.763C661.493 301.877 661.795 302.062 662.068 302.317C662.341 302.57 662.558 302.906 662.72 303.323C662.882 303.741 662.963 304.255 662.963 304.866V305.292H657.917V304.423H661.94C661.94 304.053 661.866 303.724 661.719 303.434C661.574 303.144 661.366 302.915 661.096 302.748C660.829 302.58 660.514 302.496 660.15 302.496C659.75 302.496 659.403 302.596 659.111 302.795C658.821 302.991 658.598 303.246 658.442 303.562C658.285 303.877 658.207 304.215 658.207 304.576V305.156C658.207 305.65 658.292 306.069 658.463 306.413C658.636 306.754 658.876 307.013 659.183 307.192C659.49 307.369 659.846 307.457 660.253 307.457C660.517 307.457 660.756 307.42 660.969 307.346C661.184 307.269 661.371 307.156 661.527 307.005C661.683 306.852 661.804 306.661 661.889 306.434L662.861 306.707C662.758 307.036 662.586 307.326 662.345 307.576C662.104 307.823 661.805 308.016 661.45 308.156C661.095 308.292 660.696 308.36 660.253 308.36ZM667.152 308.36C666.538 308.36 666.01 308.215 665.567 307.925C665.123 307.636 664.782 307.237 664.544 306.728C664.305 306.219 664.186 305.638 664.186 304.985C664.186 304.32 664.308 303.734 664.552 303.225C664.8 302.714 665.143 302.315 665.584 302.028C666.027 301.738 666.544 301.593 667.135 301.593C667.595 301.593 668.01 301.678 668.379 301.849C668.748 302.019 669.051 302.258 669.287 302.565C669.523 302.871 669.669 303.229 669.726 303.638H668.72C668.643 303.34 668.473 303.076 668.209 302.846C667.947 302.613 667.595 302.496 667.152 302.496C666.76 302.496 666.416 302.599 666.121 302.803C665.828 303.005 665.599 303.29 665.434 303.66C665.273 304.026 665.192 304.457 665.192 304.951C665.192 305.457 665.271 305.897 665.43 306.272C665.592 306.647 665.819 306.938 666.112 307.146C666.407 307.353 666.754 307.457 667.152 307.457C667.413 307.457 667.65 307.411 667.863 307.32C668.077 307.229 668.257 307.099 668.405 306.928C668.552 306.758 668.657 306.553 668.72 306.315H669.726C669.669 306.701 669.528 307.049 669.304 307.359C669.082 307.665 668.788 307.91 668.422 308.092C668.058 308.271 667.635 308.36 667.152 308.36Z" fill="#919EAB"/>
<defs>
<linearGradient id="paint0_linear_1_4986" x1="10.666" y1="11.2568" x2="10.666" y2="264.891" gradientUnits="userSpaceOnUse">
<stop stop-color="#5BE49B"/>
<stop offset="1" stop-color="#00A76F"/>
</linearGradient>
<linearGradient id="paint1_linear_1_4986" x1="10.666" y1="101.322" x2="10.666" y2="264.89" gradientUnits="userSpaceOnUse">
<stop stop-color="#FFD666"/>
<stop offset="1" stop-color="#FFAB00"/>
</linearGradient>
</defs>
</svg>
